<?xml version="1.0" standalone="no"?>
<!DOCTYPE svg PUBLIC "-//W3C//DTD SVG 20010904//EN"
 "http://www.w3.org/TR/2001/REC-SVG-20010904/DTD/svg10.dtd">
<svg version="1.0" xmlns="http://www.w3.org/2000/svg"
 width="512.000000pt" height="512.000000pt" viewBox="0 0 512.000000 512.000000"
 preserveAspectRatio="xMidYMid meet">
<metadata>
Created by potrace 1.14, written by Peter Selinger 2001-2017
</metadata>
<g transform="translate(0.000000,512.000000) scale(0.100000,-0.100000)"
fill="#000000" stroke="none">
<path d="M647 4259 c-104 -23 -194 -114 -213 -214 -10 -53 -11 -2465 -1 -2533
8 -55 32 -110 65 -149 27 -30 112 -83 136 -83 44 0 3 -12 -51 -15 -93 -5 -131
-21 -181 -74 -55 -58 -55 -59 -96 -156 -20 -49 -45 -108 -54 -130 -9 -22 -16
-43 -15 -47 2 -5 -2 -8 -7 -8 -5 0 -9 -3 -7 -8 2 -6 -10 -38 -44 -117 -12 -27
-32 -79 -34 -85 0 -3 -6 -15 -13 -27 -7 -13 -10 -23 -7 -23 3 0 -1 -10 -9 -22
-16 -26 -41 -99 -38 -111 1 -4 -1 -7 -6 -7 -7 0 -32 -49 -36 -73 -1 -6 -10
-30 -20 -52 -32 -74 0 -175 80 -252 83 -79 -130 -73 2484 -71 2302 3 2336 3
2375 23 116 57 192 206 152 296 -38 87 -48 111 -87 209 -23 58 -47 116 -53
130 -5 14 -11 27 -12 30 -5 13 -26 67 -35 85 -5 11 -23 56 -41 100 -61 155
-135 294 -174 327 -55 49 -85 60 -166 63 -45 2 -83 6 -85 9 -2 3 -1 4 2 2 19
-14 172 73 167 95 -2 5 1 9 5 9 16 0 51 77 59 131 4 30 7 610 7 1289 -1 1184
-2 1237 -20 1281 -28 69 -79 125 -143 156 l-56 28 -1895 1 c-1042 1 -1912 -3
-1933 -7z"/>
</g>
</svg>
